<?xml version="1.0" standalone="no"?>
<!DOCTYPE svg PUBLIC "-//W3C//DTD SVG 20010904//EN"
 "http://www.w3.org/TR/2001/REC-SVG-20010904/DTD/svg10.dtd">
<svg version="1.0" xmlns="http://www.w3.org/2000/svg"
 width="64.000000pt" height="64.000000pt" viewBox="0 0 64.000000 64.000000"
 preserveAspectRatio="xMidYMid meet">

<g transform="translate(0.000000,64.000000) scale(0.100000,-0.100000)"
fill="#000000" stroke="none">
<path d="M60 390 l0 -60 95 0 95 0 0 -100 c0 -60 -4 -100 -10 -100 -6 0 -10
37 -10 90 l0 90 -85 0 -85 0 0 -90 0 -90 -30 0 c-17 0 -30 -4 -30 -10 0 -6
113 -10 320 -10 207 0 320 4 320 10 0 6 -20 10 -45 10 l-45 0 0 135 0 135 -65
0 -65 0 0 -55 0 -55 35 0 35 0 -2 -82 -2 -83 -3 73 -4 72 -29 0 -30 0 0 -70
c0 -40 -4 -70 -10 -70 -6 0 -10 45 -10 115 0 70 -4 115 -10 115 -6 0 -10 -45
-10 -115 0 -70 -4 -115 -10 -115 -6 0 -10 60 -10 160 l0 160 -150 0 -150 0 0
-60z m275 10 c0 -18 -6 -26 -23 -28 -13 -2 -25 3 -28 12 -10 26 4 48 28 44 17
-2 23 -10 23 -28z m205 -50 c0 -25 -4 -30 -25 -30 -21 0 -25 5 -25 30 0 25 4
30 25 30 21 0 25 -5 25 -30z m-360 -135 l0 -65 -50 0 -50 0 0 65 0 65 50 0 50
0 0 -65z"/>
<path d="M300 400 c0 -5 5 -10 10 -10 6 0 10 5 10 10 0 6 -4 10 -10 10 -5 0
-10 -4 -10 -10z"/>
<path d="M500 350 c0 -5 7 -10 15 -10 8 0 15 5 15 10 0 6 -7 10 -15 10 -8 0
-15 -4 -15 -10z"/>
<path d="M90 215 l0 -45 40 0 40 0 0 45 0 45 -40 0 -40 0 0 -45z"/>
<path d="M573 305 c0 -33 2 -45 4 -27 2 18 2 45 0 60 -2 15 -4 0 -4 -33z"/>
</g>
</svg>
